<svg width="44" height="44" viewBox="0 0 44 44" fill="none" xmlns="http://www.w3.org/2000/svg">
<path d="M44 10.01C43.9753 9.06086 43.9019 8.11361 43.78 7.172C43.6157 6.34727 43.342 5.5482 42.966 4.796C42.5728 3.98003 42.0447 3.23626 41.404 2.596C40.7574 1.96285 40.0149 1.4357 39.204 1.034C38.4508 0.665377 37.6517 0.399022 36.828 0.242C35.8953 0.102299 34.9548 0.0214722 34.012 0H10.01C9.06086 0.0247201 8.11361 0.0981498 7.172 0.22C6.34727 0.38427 5.5482 0.658027 4.796 1.034C3.98003 1.42722 3.23626 1.9553 2.596 2.596C1.96285 3.2426 1.4357 3.98507 1.034 4.796C0.665377 5.5492 0.399022 6.34827 0.242 7.172C0.102299 8.10466 0.0214722 9.04518 0 9.988C0 10.406 0 11 0 11.176V32.824C0 33.066 0 33.594 0 33.99C0.0247201 34.9391 0.0981498 35.8864 0.22 36.828C0.38427 37.6527 0.658027 38.4518 1.034 39.204C1.42722 40.02 1.9553 40.7637 2.596 41.404C3.2426 42.0372 3.98507 42.5643 4.796 42.966C5.5492 43.3346 6.34827 43.601 7.172 43.758C8.10466 43.8977 9.04518 43.9785 9.988 44H33.99C34.9391 43.9753 35.8864 43.9019 36.828 43.78C37.6527 43.6157 38.4518 43.342 39.204 42.966C40.02 42.5728 40.7637 42.0447 41.404 41.404C42.0372 40.7574 42.5643 40.0149 42.966 39.204C43.3346 38.4508 43.601 37.6517 43.758 36.828C43.8977 35.8953 43.9785 34.9548 44 34.012C44 33.594 44 33.066 44 32.824V11.176C44 11 44 10.406 44 10.01ZM22.506 37.4C19.8639 37.387 17.2681 36.7058 14.96 35.42L6.6 37.62L8.8 29.436C7.38125 27.0522 6.62197 24.334 6.6 21.56C6.60876 18.4424 7.53985 15.3972 9.27599 12.8078C11.0121 10.2183 13.4757 8.20057 16.3564 7.00857C19.2371 5.81658 22.4061 5.50368 25.4643 6.10926C28.5225 6.71485 31.3331 8.21186 33.5421 10.4117C35.7512 12.6116 37.2599 15.416 37.8782 18.4716C38.4965 21.5273 38.1967 24.6975 37.0167 27.5832C35.8367 30.4688 33.8292 32.9407 31.247 34.6876C28.6649 36.4345 25.6235 37.3783 22.506 37.4V37.4ZM22.506 8.514C20.1736 8.54069 17.8899 9.18496 15.8874 10.3812C13.885 11.5775 12.2353 13.283 11.1063 15.3241C9.97725 17.3653 9.40929 19.6691 9.46019 22.0012C9.51108 24.3332 10.179 26.6101 11.396 28.6L11.704 29.106L10.384 33.924L15.4 32.56L15.884 32.846C17.8851 34.0247 20.1617 34.6545 22.484 34.672V34.672C25.9849 34.672 29.3423 33.2813 31.8178 30.8058C34.2933 28.3303 35.684 24.9729 35.684 21.472C35.684 17.9711 34.2933 14.6137 31.8178 12.1382C29.3423 9.66271 25.9849 8.272 22.484 8.272L22.506 8.514ZM30.206 27.258C29.9179 27.7386 29.532 28.1534 29.0735 28.4755C28.6149 28.7977 28.0939 29.0199 27.544 29.128C26.7224 29.2782 25.8765 29.2253 25.08 28.974C24.3306 28.7397 23.5959 28.4605 22.88 28.138C20.1602 26.7733 17.8408 24.7267 16.148 22.198C15.2281 21.0264 14.67 19.612 14.542 18.128C14.5289 17.5115 14.6455 16.8992 14.8843 16.3307C15.1231 15.7622 15.4786 15.2502 15.928 14.828C16.0604 14.6779 16.2227 14.5573 16.4046 14.4739C16.5865 14.3906 16.7839 14.3463 16.984 14.344H17.6C17.842 14.344 18.172 14.344 18.48 15.026C18.788 15.708 19.602 17.754 19.712 17.952C19.7661 18.0575 19.7942 18.1744 19.7942 18.293C19.7942 18.4116 19.7661 18.5285 19.712 18.634C19.6147 18.8731 19.4812 19.0957 19.316 19.294C19.118 19.536 18.898 19.822 18.722 19.998C18.546 20.174 18.326 20.394 18.546 20.79C19.1446 21.8002 19.8855 22.719 20.746 23.518C21.683 24.346 22.7544 25.0081 23.914 25.476C24.31 25.674 24.552 25.652 24.772 25.476C24.992 25.3 25.762 24.332 26.026 23.936C26.29 23.54 26.554 23.606 26.906 23.738C27.258 23.87 29.216 24.816 29.612 25.014C30.008 25.212 30.25 25.3 30.36 25.476C30.4554 26.0518 30.4024 26.6424 30.206 27.192V27.258Z" fill="#41D169"/>
</svg>
