<svg width="44" height="44" viewBox="0 0 44 44" fill="none" xmlns="http://www.w3.org/2000/svg">
<rect width="44" height="44" rx="22" fill="#FFC940"/>
<path d="M24.94 16.5601H28.52L27.73 17.3601C27.5438 17.5475 27.4392 17.8009 27.4392 18.0651C27.4392 18.3293 27.5438 18.5827 27.73 18.7701C27.9174 18.9564 28.1708 19.0609 28.435 19.0609C28.6992 19.0609 28.9526 18.9564 29.14 18.7701L31.64 16.2701C31.8263 16.0827 31.9308 15.8293 31.9308 15.5651C31.9308 15.3009 31.8263 15.0475 31.64 14.8601L29.14 12.3601C28.9487 12.1963 28.7026 12.1107 28.451 12.1204C28.1993 12.1301 27.9605 12.2345 27.7824 12.4125C27.6044 12.5906 27.5 12.8294 27.4903 13.0811C27.4806 13.3327 27.5662 13.5788 27.73 13.7701L28.52 14.5601H24.94C24.6748 14.5601 24.4204 14.6655 24.2329 14.853C24.0454 15.0405 23.94 15.2949 23.94 15.5601C23.94 15.8253 24.0454 16.0797 24.2329 16.2672C24.4204 16.4548 24.6748 16.5601 24.94 16.5601ZM29.44 23.0001C29.22 23.0001 28.99 22.9301 28.77 22.8801C28.3245 22.7819 27.8867 22.6516 27.46 22.4901C26.9961 22.3213 26.4862 22.3301 26.0283 22.5147C25.5705 22.6993 25.1971 23.0467 24.98 23.4901L24.76 23.9401C23.786 23.3983 22.891 22.7253 22.1 21.9401C21.3148 21.1491 20.6418 20.2541 20.1 19.2801L20.52 19.0001C20.9634 18.783 21.3108 18.4096 21.4954 17.9518C21.68 17.494 21.6888 16.984 21.52 16.5201C21.3612 16.0925 21.2309 15.6549 21.13 15.2101C21.08 14.9901 21.04 14.7601 21.01 14.5301C20.8886 13.8257 20.5196 13.1879 19.9696 12.7314C19.4196 12.2748 18.7247 12.0297 18.01 12.0401H15.01C14.579 12.0361 14.1523 12.1249 13.7587 12.3006C13.3652 12.4764 13.0141 12.7348 12.7294 13.0584C12.4448 13.382 12.2331 13.7631 12.109 14.1758C11.9849 14.5885 11.9511 15.0232 12.01 15.4501C12.5427 19.6395 14.456 23.532 17.4477 26.5127C20.4393 29.4935 24.3387 31.3926 28.53 31.9101H28.91C29.6474 31.9112 30.3594 31.6406 30.91 31.1501C31.2264 30.8672 31.4791 30.5203 31.6515 30.1324C31.8239 29.7446 31.912 29.3245 31.91 28.9001V25.9001C31.8978 25.2055 31.6448 24.5367 31.1943 24.0078C30.7439 23.4789 30.1238 23.1227 29.44 23.0001ZM29.94 29.0001C29.9398 29.1421 29.9094 29.2824 29.8508 29.4117C29.7922 29.5411 29.7067 29.6564 29.6 29.7501C29.4883 29.8466 29.3576 29.9187 29.2164 29.9617C29.0752 30.0048 28.9266 30.0178 28.78 30.0001C25.0349 29.5199 21.5562 27.8066 18.8927 25.1304C16.2292 22.4542 14.5324 18.9674 14.07 15.2201C14.0541 15.0736 14.068 14.9254 14.111 14.7845C14.154 14.6436 14.2251 14.5128 14.32 14.4001C14.4137 14.2934 14.5291 14.208 14.6584 14.1493C14.7877 14.0907 14.928 14.0603 15.07 14.0601H18.07C18.3026 14.0549 18.5296 14.131 18.7122 14.2752C18.8947 14.4194 19.0212 14.6227 19.07 14.8501C19.11 15.1234 19.16 15.3934 19.22 15.6601C19.3355 16.1873 19.4893 16.7053 19.68 17.2101L18.28 17.8601C18.1603 17.915 18.0526 17.9931 17.9632 18.0897C17.8737 18.1864 17.8042 18.2997 17.7587 18.4233C17.7132 18.5469 17.6925 18.6782 17.6979 18.8098C17.7032 18.9414 17.7345 19.0707 17.79 19.1901C19.2292 22.2729 21.7073 24.7509 24.79 26.1901C25.0335 26.2901 25.3065 26.2901 25.55 26.1901C25.6747 26.1455 25.7893 26.0766 25.8872 25.9873C25.985 25.898 26.0642 25.7902 26.12 25.6701L26.74 24.2701C27.257 24.455 27.7846 24.6086 28.32 24.7301C28.5867 24.7901 28.8567 24.8401 29.13 24.8801C29.3574 24.9289 29.5607 25.0554 29.7049 25.238C29.8491 25.4205 29.9252 25.6476 29.92 25.8801L29.94 29.0001Z" fill="#0C3586"/>
</svg>
